<svg xmlns="http://www.w3.org/2000/svg" data-name="Layer 1" viewBox="0 0 512 512" id="filter"><g data-name="<Group>"><polygon fill="#fdc75b" points="426 73.25 305.52 257.39 305.52 438.75 206.48 378.75 206.48 257.39 86 73.25 426 73.25"></polygon><path d="M426,63.25H86a10,10,0,0,0-8.368,15.475L196.48,260.371V378.75A10,10,0,0,0,201.3,387.3l99.04,60a10,10,0,0,0,15.182-8.553V260.371L434.368,78.725A10,10,0,0,0,426,63.25ZM297.152,251.915a10,10,0,0,0-1.632,5.475V421l-79.04-47.884V257.39a10,10,0,0,0-1.632-5.475L104.493,83.25H407.507Z"></path></g></svg>